<mxfile host="app.diagrams.net" modified="2023-05-05T09:11:01.125Z" agent="Mozilla/5.0 (Macintosh; Intel Mac OS X 10_15_7) AppleWebKit/537.36 (KHTML, like Gecko) Chrome/112.0.0.0 Safari/537.36" etag="C2DNP25UCJtRKVWtuRC9" version="21.2.9" type="github">
  <diagram name="Page-1" id="yn77ylmYPzZRrFvlED94">
    <mxGraphModel dx="1140" dy="808" grid="1" gridSize="10" guides="1" tooltips="1" connect="1" arrows="1" fold="1" page="1" pageScale="1" pageWidth="900" pageHeight="1600" math="0" shadow="0">
      <root>
        <mxCell id="0" />
        <mxCell id="1" parent="0" />
        <mxCell id="2QfEncQYh87Pmnqzd6W_-1" value="`" style="text;html=1;align=center;verticalAlign=middle;resizable=0;points=[];autosize=1;strokeColor=none;fillColor=none;" vertex="1" parent="1">
          <mxGeometry x="225" y="198" width="30" height="30" as="geometry" />
        </mxCell>
        <mxCell id="2QfEncQYh87Pmnqzd6W_-2" style="edgeStyle=orthogonalEdgeStyle;rounded=0;orthogonalLoop=1;jettySize=auto;html=1;entryX=-0.01;entryY=0.461;entryDx=0;entryDy=0;endArrow=ERmany;endFill=0;endSize=11;entryPerimeter=0;" edge="1" parent="1" source="2QfEncQYh87Pmnqzd6W_-4" target="2QfEncQYh87Pmnqzd6W_-10">
          <mxGeometry relative="1" as="geometry">
            <Array as="points">
              <mxPoint x="340" y="330" />
              <mxPoint x="340" y="94" />
            </Array>
            <mxPoint x="530" y="95" as="targetPoint" />
          </mxGeometry>
        </mxCell>
        <mxCell id="2QfEncQYh87Pmnqzd6W_-3" style="edgeStyle=orthogonalEdgeStyle;rounded=0;orthogonalLoop=1;jettySize=auto;html=1;endArrow=ERmany;endFill=0;endSize=11;entryX=0;entryY=0.5;entryDx=0;entryDy=0;exitX=1;exitY=0.5;exitDx=0;exitDy=0;" edge="1" parent="1" source="2QfEncQYh87Pmnqzd6W_-4" target="2QfEncQYh87Pmnqzd6W_-9">
          <mxGeometry relative="1" as="geometry">
            <mxPoint x="225" y="275" as="sourcePoint" />
            <mxPoint x="420" y="517.5" as="targetPoint" />
            <Array as="points">
              <mxPoint x="340" y="330" />
              <mxPoint x="340" y="485" />
            </Array>
          </mxGeometry>
        </mxCell>
        <mxCell id="2QfEncQYh87Pmnqzd6W_-4" value="&lt;div style=&quot;box-sizing: border-box; width: 100%; background: rgb(228, 228, 228); padding: 2px; font-size: 14px;&quot;&gt;&lt;font style=&quot;font-size: 14px;&quot;&gt;member&lt;/font&gt;&lt;/div&gt;&lt;table style=&quot;width: 100%; font-size: 14px;&quot; cellpadding=&quot;2&quot; cellspacing=&quot;0&quot;&gt;&lt;tbody&gt;&lt;tr&gt;&lt;td&gt;&lt;font style=&quot;font-size: 14px;&quot;&gt;PK&lt;/font&gt;&lt;/td&gt;&lt;td&gt;&lt;font style=&quot;font-size: 14px;&quot;&gt;member_id&lt;span style=&quot;white-space: pre;&quot;&gt; &lt;span style=&quot;white-space: pre;&quot;&gt; &lt;/span&gt;&lt;/span&gt;(bigint)&lt;/font&gt;&lt;/td&gt;&lt;/tr&gt;&lt;tr&gt;&lt;td&gt;&lt;br&gt;&lt;/td&gt;&lt;td&gt;&lt;font style=&quot;font-size: 14px;&quot;&gt;name&lt;span style=&quot;white-space: pre;&quot;&gt; &lt;span style=&quot;white-space: pre;&quot;&gt; &lt;span style=&quot;white-space: pre;&quot;&gt; &lt;/span&gt;&lt;span style=&quot;white-space: pre;&quot;&gt; &lt;/span&gt;&lt;/span&gt;&lt;/span&gt;(varchar(15))&lt;br&gt;&lt;/font&gt;&lt;/td&gt;&lt;/tr&gt;&lt;tr&gt;&lt;td&gt;&lt;br&gt;&lt;/td&gt;&lt;td&gt;&lt;font style=&quot;font-size: 14px;&quot;&gt;login_id&lt;span style=&quot;white-space: pre;&quot;&gt; &lt;span style=&quot;white-space: pre;&quot;&gt; &lt;span style=&quot;white-space: pre;&quot;&gt; &lt;/span&gt;&lt;span style=&quot;white-space: pre;&quot;&gt; &lt;/span&gt;&lt;/span&gt;&lt;/span&gt;(varchar(20))&lt;br&gt;password&lt;span style=&quot;white-space: pre;&quot;&gt; &lt;/span&gt;&lt;span style=&quot;white-space: pre;&quot;&gt; &lt;/span&gt;&lt;span style=&quot;white-space: pre;&quot;&gt; &lt;/span&gt;(varchar(20))&lt;br&gt;&lt;br&gt;&lt;br&gt;&lt;/font&gt;&lt;/td&gt;&lt;/tr&gt;&lt;/tbody&gt;&lt;/table&gt;" style="verticalAlign=top;align=left;overflow=fill;html=1;whiteSpace=wrap;shadow=1;" vertex="1" parent="1">
          <mxGeometry x="10" y="270" width="260" height="110" as="geometry" />
        </mxCell>
        <mxCell id="2QfEncQYh87Pmnqzd6W_-23" style="edgeStyle=orthogonalEdgeStyle;rounded=0;orthogonalLoop=1;jettySize=auto;html=1;entryX=0.5;entryY=1;entryDx=0;entryDy=0;endArrow=ERmany;endFill=0;endSize=11;" edge="1" parent="1" source="2QfEncQYh87Pmnqzd6W_-9" target="2QfEncQYh87Pmnqzd6W_-18">
          <mxGeometry relative="1" as="geometry" />
        </mxCell>
        <mxCell id="2QfEncQYh87Pmnqzd6W_-9" value="&lt;div style=&quot;box-sizing: border-box; width: 100%; background: rgb(228, 228, 228); padding: 2px; font-size: 14px;&quot;&gt;&lt;font style=&quot;font-size: 14px;&quot;&gt;recipe&lt;/font&gt;&lt;/div&gt;&lt;table style=&quot;width: 100%; font-size: 14px;&quot; cellpadding=&quot;2&quot; cellspacing=&quot;0&quot;&gt;&lt;tbody&gt;&lt;tr&gt;&lt;td&gt;&lt;font style=&quot;font-size: 14px;&quot;&gt;PK&lt;/font&gt;&lt;/td&gt;&lt;td&gt;&lt;font style=&quot;font-size: 14px;&quot;&gt;recipe_id&lt;span style=&quot;white-space: pre;&quot;&gt; &lt;/span&gt;&amp;nbsp; &amp;nbsp;&lt;span style=&quot;white-space: pre;&quot;&gt; &lt;/span&gt;&lt;span style=&quot;white-space: pre;&quot;&gt; &lt;span style=&quot;white-space: pre;&quot;&gt; &lt;/span&gt;&lt;span style=&quot;white-space: pre;&quot;&gt; &lt;/span&gt;&lt;/span&gt;(bigint)&lt;br&gt;&lt;/font&gt;&lt;/td&gt;&lt;/tr&gt;&lt;tr&gt;&lt;td&gt;&lt;font color=&quot;#ff0808&quot;&gt;&lt;br&gt;FK&lt;/font&gt;&lt;/td&gt;&lt;td&gt;&lt;font style=&quot;font-size: 14px;&quot;&gt;&lt;br&gt;&lt;br&gt;member_id &lt;span style=&quot;white-space: pre;&quot;&gt; &lt;/span&gt;&lt;span style=&quot;white-space: pre;&quot;&gt; &lt;/span&gt;(bigint)&lt;br&gt;recipe_name&lt;span style=&quot;white-space: pre;&quot;&gt; &lt;/span&gt;&lt;span style=&quot;white-space: pre;&quot;&gt; &lt;/span&gt;(varchar(30))&lt;span style=&quot;white-space: pre;&quot;&gt; &lt;/span&gt;&lt;br&gt;&lt;/font&gt;&lt;/td&gt;&lt;/tr&gt;&lt;tr&gt;&lt;td&gt;&lt;font style=&quot;font-size: 14px;&quot;&gt;&lt;br&gt;&lt;/font&gt;&lt;/td&gt;&lt;td&gt;&lt;font style=&quot;font-size: 14px;&quot;&gt;recipe_detail&lt;span style=&quot;white-space: pre;&quot;&gt; &lt;span style=&quot;white-space: pre;&quot;&gt; &lt;/span&gt;&lt;span style=&quot;white-space: pre;&quot;&gt; &lt;/span&gt;&lt;/span&gt;(varchar(255))&lt;br&gt;&lt;br&gt;&lt;/font&gt;&lt;/td&gt;&lt;/tr&gt;&lt;/tbody&gt;&lt;/table&gt;" style="verticalAlign=top;align=left;overflow=fill;html=1;whiteSpace=wrap;shadow=1;" vertex="1" parent="1">
          <mxGeometry x="590" y="420" width="250" height="130" as="geometry" />
        </mxCell>
        <mxCell id="2QfEncQYh87Pmnqzd6W_-22" style="edgeStyle=orthogonalEdgeStyle;rounded=0;orthogonalLoop=1;jettySize=auto;html=1;entryX=0.5;entryY=0;entryDx=0;entryDy=0;endArrow=ERmany;endFill=0;endSize=11;" edge="1" parent="1" source="2QfEncQYh87Pmnqzd6W_-10" target="2QfEncQYh87Pmnqzd6W_-18">
          <mxGeometry relative="1" as="geometry" />
        </mxCell>
        <mxCell id="2QfEncQYh87Pmnqzd6W_-10" value="&lt;div style=&quot;box-sizing: border-box; width: 100%; background: rgb(228, 228, 228); padding: 2px; font-size: 14px;&quot;&gt;&lt;font style=&quot;font-size: 14px;&quot;&gt;Ingredient&lt;/font&gt;&lt;/div&gt;&lt;table style=&quot;width: 100%; font-size: 14px;&quot; cellpadding=&quot;2&quot; cellspacing=&quot;0&quot;&gt;&lt;tbody&gt;&lt;tr&gt;&lt;td&gt;&lt;font style=&quot;font-size: 14px;&quot;&gt;PK&lt;/font&gt;&lt;/td&gt;&lt;td&gt;&lt;font style=&quot;font-size: 14px;&quot;&gt;ingred_id&lt;span style=&quot;white-space: pre;&quot;&gt; &lt;/span&gt;&lt;span style=&quot;white-space: pre;&quot;&gt; &lt;/span&gt;(bigint)&lt;br&gt;&lt;/font&gt;&lt;/td&gt;&lt;/tr&gt;&lt;tr&gt;&lt;td&gt;&lt;font style=&quot;font-size: 14px;&quot;&gt;&lt;font style=&quot;font-size: 14px;&quot; color=&quot;#ff0808&quot;&gt;&lt;br&gt;&lt;/font&gt;&lt;/font&gt;&lt;/td&gt;&lt;td&gt;&lt;font style=&quot;font-size: 14px;&quot;&gt;&lt;br&gt;ingred_name&lt;span style=&quot;white-space: pre;&quot;&gt; &lt;/span&gt;(varchar(30))&lt;br&gt;&lt;/font&gt;&lt;/td&gt;&lt;/tr&gt;&lt;tr&gt;&lt;td&gt;&lt;font color=&quot;#ff0000&quot; style=&quot;font-size: 14px;&quot;&gt;FK&lt;/font&gt;&lt;/td&gt;&lt;td&gt;&lt;font style=&quot;font-size: 14px;&quot;&gt;quantity&lt;span style=&quot;white-space: pre;&quot;&gt; &lt;span style=&quot;white-space: pre;&quot;&gt; &lt;/span&gt;&lt;/span&gt;(int)&lt;br&gt;&lt;br&gt;member_id&lt;br&gt;&lt;br&gt;&lt;br&gt;&lt;/font&gt;&lt;/td&gt;&lt;/tr&gt;&lt;/tbody&gt;&lt;/table&gt;" style="verticalAlign=top;align=left;overflow=fill;html=1;whiteSpace=wrap;shadow=1;" vertex="1" parent="1">
          <mxGeometry x="590" y="30" width="250" height="140" as="geometry" />
        </mxCell>
        <mxCell id="2QfEncQYh87Pmnqzd6W_-17" value="n:m" style="text;html=1;align=center;verticalAlign=middle;resizable=0;points=[];autosize=1;strokeColor=none;fillColor=none;" vertex="1" parent="1">
          <mxGeometry x="650" y="288" width="40" height="30" as="geometry" />
        </mxCell>
        <mxCell id="2QfEncQYh87Pmnqzd6W_-18" value="&lt;div style=&quot;box-sizing: border-box; width: 100%; background: rgb(228, 228, 228); padding: 2px; font-size: 14px;&quot;&gt;&lt;font style=&quot;font-size: 14px;&quot;&gt;ingredient_recipe&lt;/font&gt;&lt;/div&gt;&lt;table style=&quot;width: 100%; font-size: 14px;&quot; cellpadding=&quot;2&quot; cellspacing=&quot;0&quot;&gt;&lt;tbody&gt;&lt;tr&gt;&lt;td&gt;&lt;font color=&quot;#ff0808&quot;&gt;(PK, FK)&lt;/font&gt;&lt;span style=&quot;white-space: pre;&quot;&gt; &lt;/span&gt;ingred_id&lt;span style=&quot;white-space: pre;&quot;&gt; &lt;/span&gt;&lt;span style=&quot;white-space: pre;&quot;&gt; &lt;/span&gt;(bigint)&lt;br&gt;&lt;font color=&quot;#ff0000&quot;&gt;(PK, FK)&lt;/font&gt;&lt;span style=&quot;white-space: pre;&quot;&gt; &lt;/span&gt;recipe_id&lt;span style=&quot;white-space: pre;&quot;&gt; &lt;/span&gt;&lt;span style=&quot;white-space: pre;&quot;&gt; &lt;/span&gt;(bigint)&lt;/td&gt;&lt;td&gt;&lt;/td&gt;&lt;/tr&gt;&lt;tr&gt;&lt;td&gt;&lt;/td&gt;&lt;td&gt;&lt;font style=&quot;font-size: 14px;&quot;&gt;&lt;br&gt;&lt;br&gt;&lt;br&gt;&lt;/font&gt;&lt;/td&gt;&lt;/tr&gt;&lt;/tbody&gt;&lt;/table&gt;" style="verticalAlign=top;align=left;overflow=fill;html=1;whiteSpace=wrap;shadow=1;" vertex="1" parent="1">
          <mxGeometry x="590" y="220" width="250" height="140" as="geometry" />
        </mxCell>
      </root>
    </mxGraphModel>
  </diagram>
</mxfile>
